<?xml version="1.0" encoding="utf-8"?>
<!-- Generator: Adobe Illustrator 27.5.0, SVG Export Plug-In . SVG Version: 6.00 Build 0)  -->
<svg version="1.1" xmlns="http://www.w3.org/2000/svg" xmlns:xlink="http://www.w3.org/1999/xlink" x="0px" y="0px"
	 viewBox="0 0 500 500" style="enable-background:new 0 0 500 500;" xml:space="preserve">
<g id="BACKGROUND">
	<rect style="fill:#FFFFFF;" width="500" height="500"/>
</g>
<g id="OBJECT">
	<g>
		<path style="fill:none;stroke:#37291B;stroke-width:3.345;stroke-linecap:round;stroke-linejoin:round;stroke-miterlimit:10;" d="
			M119.175,135.574c0,0-28.393,10.379-41.219,46.079"/>
		
			<line style="fill:none;stroke:#37291B;stroke-width:3.345;stroke-linecap:round;stroke-linejoin:round;stroke-miterlimit:10;" x1="116.679" y1="149.85" x2="99.33" y2="114.029"/>
		
			<line style="fill:none;stroke:#37291B;stroke-width:3.345;stroke-linecap:round;stroke-linejoin:round;stroke-miterlimit:10;" x1="100.18" y1="160.078" x2="67.193" y2="133.805"/>
		
			<line style="fill:none;stroke:#37291B;stroke-width:3.345;stroke-linecap:round;stroke-linejoin:round;stroke-miterlimit:10;" x1="94.049" y1="178.453" x2="53.019" y2="166.819"/>
	</g>
	<g>
		<path style="fill:none;stroke:#37291B;stroke-width:3.345;stroke-linecap:round;stroke-linejoin:round;stroke-miterlimit:10;" d="
			M291.827,367.124c0,0,36.719,9.264,64.235-21.896"/>
		
			<line style="fill:none;stroke:#37291B;stroke-width:3.345;stroke-linecap:round;stroke-linejoin:round;stroke-miterlimit:10;" x1="302.061" y1="355.369" x2="298.12" y2="397.994"/>
		
			<line style="fill:none;stroke:#37291B;stroke-width:3.345;stroke-linecap:round;stroke-linejoin:round;stroke-miterlimit:10;" x1="322.938" y1="355.125" x2="338.703" y2="397.653"/>
		
			<line style="fill:none;stroke:#37291B;stroke-width:3.345;stroke-linecap:round;stroke-linejoin:round;stroke-miterlimit:10;" x1="338.798" y1="341.615" x2="370.106" y2="375.137"/>
	</g>
	<g>
		<g>
			<path style="fill:#FFFFFF;" d="M382.255,119.685c-42.73-18.996-92.891-11.065-127.963,19.866
				c-18.388,16.216-37.414,40.504-53.127,76.88c-8.415,19.481-14.587,39.857-18.732,60.668l-13.3,66.777
				c-1.952,9.798-6.036,19.095-12.241,26.926c-5.956,7.517-14.768,15.036-27.467,18.677c-7.262,2.082-14.901,2.494-22.397,1.551
				l-13.717-1.725c-16.05-2.019-28.138-15.715-27.955-31.891c0.021-1.879,0.144-3.87,0.383-5.978c0,0,3.466-30.132,9.612-63.069
				c7.594-40.693,25.771-78.796,53.34-109.675c34.826-39.009,92.147-75.804,182.126-66.951c0,0,6.398-1.328,11.809-1.722
				c0,0-29.045-7.421-70.346-2.798c-49.216,5.509-94.836,28.311-128.921,64.239c-0.461,0.486-0.922,0.975-1.383,1.469
				c-27.531,29.482-46.38,65.984-55.24,105.337c-4.024,17.872-9.001,43.377-12.855,74.046c-0.913,7.264-0.501,14.666,1.496,21.71
				c2.821,9.944,9.287,21.588,24.008,26.577c5.363,1.817,10.86,3.214,16.512,3.575l4.496,0.287
				c18.516,1.183,37.088-1.172,54.723-6.939l250.975-95.123c6.664-2.526,12.99-5.897,18.698-10.166
				c0.525-0.392,1.054-0.798,1.585-1.217c10.197-8.049,16.754-19.821,18.465-32.698
				C448.755,228.853,452.386,150.863,382.255,119.685z"/>
			<g>
				<path style="fill:#37291B;" d="M279.411,105.705c25.243,0,41.807,3.966,43.13,4.293c-3.98,0.38-7.938,0.957-11.86,1.73
					c-9.124-0.894-17.904-1.317-26.367-1.317c-74.924,0-124.347,33.248-155.623,68.281c-27.569,30.88-45.746,68.982-53.34,109.675
					c-6.146,32.937-9.612,63.069-9.612,63.069c-0.239,2.108-0.362,4.099-0.383,5.978c-0.183,16.175,11.905,29.872,27.955,31.891
					l13.717,1.725c2.511,0.316,5.037,0.48,7.561,0.48c5.01,0,10.007-0.646,14.836-2.03c12.699-3.641,21.511-11.16,27.467-18.677
					c6.204-7.831,10.289-17.128,12.241-26.926l13.3-66.777c4.145-20.812,10.317-41.188,18.732-60.668
					c15.713-36.376,34.74-60.664,53.127-76.88c16.292-14.369,35.842-23.774,56.389-27.822c0.044,0.004,0.093,0.009,0.137,0.013
					c0,0,6.398-1.328,11.809-1.722c0,0-0.029-0.007-0.086-0.021c3.791-0.362,7.6-0.544,11.414-0.544
					c16.361,0,32.818,3.348,48.299,10.23c70.131,31.178,66.5,109.168,62.585,138.632c-1.712,12.878-8.269,24.649-18.465,32.698
					c-0.531,0.419-1.06,0.825-1.585,1.217c-5.708,4.268-12.034,7.64-18.698,10.166l-250.975,95.124
					c-14.678,4.8-30.005,7.236-45.409,7.236c-3.103,0-6.209-0.099-9.314-0.297l-4.496-0.287c-5.651-0.361-11.148-1.757-16.512-3.575
					c-14.722-4.988-21.188-16.632-24.008-26.577c-1.998-7.043-2.409-14.446-1.496-21.71c3.854-30.669,8.831-56.174,12.855-74.046
					c8.86-39.353,27.709-75.855,55.24-105.337c0.461-0.494,0.922-0.984,1.383-1.469c34.085-35.927,79.705-58.729,128.921-64.239
					C262.092,106.124,271.208,105.705,279.411,105.705 M279.411,102.36C279.411,102.36,279.411,102.36,279.411,102.36
					c-9.134,0-18.388,0.517-27.503,1.538c-49.827,5.578-96.342,28.755-130.975,65.261c-0.467,0.492-0.934,0.988-1.401,1.488
					c-27.58,29.535-46.965,66.495-56.059,106.885c-3.681,16.35-8.909,42.524-12.911,74.363c-1.006,8.005-0.469,15.757,1.597,23.04
					c4.1,14.454,13.143,24.424,26.153,28.832c6.538,2.215,12.058,3.405,17.372,3.745l4.496,0.287
					c3.158,0.202,6.363,0.304,9.527,0.304c15.802,0,31.43-2.49,46.449-7.402c0.049-0.016,0.098-0.033,0.146-0.051l250.975-95.124
					c7.16-2.714,13.726-6.285,19.516-10.615c0.547-0.409,1.099-0.833,1.654-1.27c10.859-8.572,17.858-20.96,19.709-34.883
					c4.28-32.205,6.558-110.522-64.542-142.13c-15.7-6.98-32.408-10.519-49.658-10.519c-3.712,0-7.468,0.17-11.173,0.507
					C319.258,105.793,303.148,102.361,279.411,102.36L279.411,102.36z M114.59,388.165c-2.348,0-4.751-0.153-7.144-0.453
					l-13.717-1.725c-14.432-1.815-25.191-14.082-25.028-28.534c0.02-1.801,0.142-3.699,0.362-5.639
					c0.034-0.294,3.524-30.397,9.577-62.831c7.594-40.696,25.765-78.063,52.547-108.061c17.609-19.724,37.941-35.371,60.433-46.508
					c27.681-13.706,58.868-20.656,92.695-20.656c2.177,0,4.373,0.029,6.585,0.087c-14.214,5.272-27.397,13.124-38.82,23.199
					c-21.723,19.158-39.886,45.422-53.986,78.063c-8.279,19.167-14.652,39.805-18.941,61.341l-13.3,66.777
					c-1.894,9.512-5.899,18.33-11.582,25.502c-6.905,8.715-15.575,14.616-25.767,17.539
					C124.104,387.525,119.423,388.165,114.59,388.165L114.59,388.165z"/>
			</g>
		</g>
		<g>
			<g>
				<g>
					<path style="fill:#FFFFFF;" d="M284.016,119.851c-0.02,0.158-0.041,0.325-0.07,0.483c-5.619,2.554-11.062,5.559-16.283,9.003
						c-1.324,0.87-2.634,1.768-3.921,2.696c-2.65,1.891-5.236,3.915-7.738,6.048c-10.065-3.008-16.768-12.927-15.414-23.691
						c1.509-11.995,12.449-20.491,24.444-18.982C277.03,96.916,285.525,107.856,284.016,119.851z"/>
					<g>
						<g>
							<path style="fill:#37291B;" d="M262.274,95.234c0.912,0,1.832,0.057,2.761,0.174c11.995,1.509,20.491,12.449,18.982,24.444
								c-0.02,0.158-0.041,0.325-0.07,0.482c-5.619,2.554-11.062,5.559-16.283,9.003c-1.324,0.87-2.634,1.768-3.921,2.696
								c-2.65,1.891-5.236,3.915-7.738,6.048c-10.065-3.008-16.768-12.927-15.414-23.691
								C241.983,103.323,251.404,95.235,262.274,95.234 M262.275,91.889c0,0-0.002,0-0.002,0
								c-12.67,0.001-23.419,9.495-25.002,22.083c-1.545,12.287,5.93,23.774,17.775,27.314c0.315,0.094,0.637,0.14,0.958,0.14
								c0.785,0,1.557-0.277,2.171-0.8c2.439-2.08,4.966-4.055,7.51-5.871c1.219-0.879,2.498-1.758,3.814-2.623
								c5.043-3.326,10.367-6.27,15.831-8.753c0.998-0.454,1.71-1.367,1.907-2.445c0.039-0.217,0.07-0.447,0.098-0.665
								c0.841-6.688-0.971-13.302-5.104-18.623c-4.132-5.322-10.091-8.716-16.78-9.557C264.399,91.956,263.33,91.889,262.275,91.889
								L262.275,91.889z"/>
						</g>
					</g>
				</g>
				<g>
					<path style="fill:#FFFFFF;" d="M267.664,129.337c-1.324,0.87-2.634,1.768-3.921,2.696c-3.249,2.325-6.406,4.84-9.451,7.521
						c-6.882,6.067-13.855,13.274-20.699,21.811l-4.376,0.271l-27.301-21.801c0,0-4.21-6.586-3.011-14.127
						c1.059-6.647,7.987-10.448,14.256-8.016c3.083,1.201,6.483,3.361,9.458,7.193c0,0-1.329-10.458,5.536-15.75
						c6.857-5.293,17.152-2.56,20.526,5.423c1.68,3.972,2.137,9.711-0.703,17.877c0,0,3.176-3.451,8.228-5.049
						C260.43,126.05,264.572,127,267.664,129.337z"/>
					<g>
						<g>
							<path style="fill:#37291B;" d="M236.199,106.409c5.188,0,10.292,2.969,12.482,8.149c1.68,3.972,2.137,9.711-0.703,17.877
								c0,0,3.176-3.451,8.228-5.049c1.315-0.416,2.622-0.61,3.891-0.61c2.809,0,5.437,0.951,7.566,2.561
								c-1.324,0.87-2.634,1.768-3.921,2.696c-3.249,2.325-6.406,4.84-9.451,7.521c-6.882,6.067-13.855,13.274-20.699,21.811
								l-4.376,0.271l-27.301-21.801c0,0-4.21-6.586-3.011-14.127c0.84-5.273,5.374-8.755,10.342-8.755
								c1.295,0,2.619,0.236,3.915,0.739c3.083,1.201,6.483,3.361,9.458,7.193c0,0-1.329-10.458,5.536-15.75
								C230.562,107.278,233.393,106.409,236.199,106.409 M236.199,103.064c-3.698,0-7.186,1.184-10.088,3.424
								c-3.911,3.014-5.661,7.263-6.413,10.963c-1.651-1.176-3.428-2.136-5.324-2.874c-1.656-0.642-3.38-0.967-5.128-0.967
								c-6.838,0-12.576,4.867-13.645,11.573c-1.383,8.698,3.296,16.143,3.496,16.455c0.198,0.309,0.445,0.583,0.731,0.812
								l27.301,21.801c0.594,0.475,1.331,0.731,2.087,0.731c0.069,0,0.138-0.002,0.207-0.007l4.376-0.271
								c0.941-0.058,1.813-0.511,2.403-1.246c6.348-7.918,13.179-15.116,20.302-21.394c2.963-2.61,6.054-5.07,9.185-7.31
								c1.216-0.877,2.495-1.756,3.811-2.62c0.909-0.597,1.471-1.599,1.507-2.686c0.036-1.087-0.459-2.123-1.327-2.779
								c-2.802-2.118-6.116-3.237-9.583-3.237c-1.645,0-3.293,0.258-4.9,0.766c-0.704,0.223-1.378,0.477-2.017,0.751
								c0.5-4.359,0.028-8.272-1.419-11.692C249.145,107.065,243.037,103.064,236.199,103.064L236.199,103.064z"/>
						</g>
					</g>
				</g>
				<g>
					<g>
						<path style="fill:#FFFFFF;" d="M218.019,142.274l-3.483,27.694c-0.258,2.05-1.668,3.77-3.627,4.426l-23.951,8.014
							c-1.548,0.518-3.248,0.304-4.62-0.581l-21.213-13.694c-1.735-1.12-2.675-3.136-2.417-5.185l3.483-27.695
							c0.258-2.05,1.668-3.77,3.627-4.426l23.943-8.008c1.548-0.518,3.246-0.304,4.618,0.58l21.221,13.689
							C217.336,138.208,218.277,140.224,218.019,142.274z"/>
						<g>
							<g>
								<path style="fill:#37291B;" d="M191.465,122.54c1.022,0,2.035,0.291,2.913,0.858l21.221,13.689
									c1.736,1.12,2.677,3.136,2.419,5.186l-3.483,27.694c-0.258,2.05-1.668,3.77-3.627,4.426l-23.951,8.014
									c-0.556,0.186-1.132,0.278-1.705,0.278c-1.022,0-2.036-0.292-2.915-0.859l-21.213-13.694
									c-1.735-1.12-2.675-3.136-2.417-5.185l3.483-27.695c0.258-2.05,1.668-3.77,3.627-4.426l23.943-8.008
									C190.317,122.632,190.893,122.54,191.465,122.54 M191.465,119.195c-0.942,0-1.872,0.152-2.765,0.45l-23.943,8.008
									c-3.159,1.057-5.469,3.875-5.885,7.181l-3.483,27.695c-0.416,3.305,1.124,6.607,3.922,8.413l21.213,13.694
									c1.412,0.912,3.048,1.394,4.729,1.394c0.942,0,1.873-0.152,2.766-0.451l23.951-8.014c3.159-1.057,5.468-3.875,5.884-7.18
									l3.483-27.694c0.416-3.306-1.125-6.609-3.924-8.415l-21.221-13.689C194.78,119.677,193.146,119.195,191.465,119.195
									L191.465,119.195z"/>
							</g>
						</g>
						
							<line style="fill:none;stroke:#37291B;stroke-width:3.345;stroke-linecap:round;stroke-linejoin:round;stroke-miterlimit:10;" x1="188.481" y1="151.677" x2="184.584" y2="182.643"/>
					</g>
					<g>
						<g>
							<g>
								<path style="fill:#37291B;" d="M191.466,122.544c1.022,0,2.036,0.291,2.916,0.857l21.221,13.689
									c0.857,0.547,1.525,1.325,1.933,2.206c-0.613,0.753-1.454,1.341-2.419,1.659l-23.942,8.009
									c-0.559,0.188-1.136,0.281-1.711,0.281c-1.02,0-2.031-0.293-2.908-0.862l-21.221-13.69
									c-0.849-0.546-1.525-1.325-1.941-2.207c0.621-0.752,1.461-1.34,2.427-1.658l23.942-8.009
									C190.318,122.635,190.894,122.544,191.466,122.544 M191.466,119.199C191.466,119.199,191.466,119.199,191.466,119.199
									c-0.939,0-1.868,0.15-2.759,0.447l-23.947,8.011c-1.534,0.504-2.903,1.439-3.944,2.699c-0.825,0.999-1,2.385-0.447,3.557
									c0.692,1.469,1.785,2.712,3.158,3.595l21.216,13.687c1.405,0.912,3.04,1.397,4.722,1.397c0.947,0,1.882-0.154,2.781-0.457
									l23.933-8.006c1.546-0.508,2.918-1.45,3.951-2.718c0.808-0.992,0.98-2.357,0.443-3.518
									c-0.687-1.484-1.783-2.737-3.169-3.621l-21.207-13.68C194.778,119.679,193.145,119.199,191.466,119.199L191.466,119.199z"/>
							</g>
						</g>
					</g>
				</g>
				<g>
					<path style="fill:#FFFFFF;" d="M181.544,170.739c0,0,6.782-10.873,1.211-18.114c-1.317-1.712-3.199-2.886-5.254-3.549
						c-4.245-1.369-12.547-2.247-19.141,8.091c0,0,0.827-10.97-7.973-16.72c-6.554-4.283-15.202-2.407-19.263,4.287
						c-2.96,4.879-4.4,12.424,0.717,23.52c0,0-5.121-3.825-11.745-4.074c-8.037-0.302-14.448,6.596-14.101,14.631
						c0.26,6.012,3.45,13.133,15.533,16.875c0,0-0.603-0.003-1.558,0.166c-11.053,1.953-14.021,16.493-4.776,22.857
						c2.198,1.513,5.129,2.809,9.033,3.604L181.544,170.739z"/>
					<g>
						<g>
							<path style="fill:#37291B;" d="M142.764,138.153c2.604,0,5.251,0.743,7.623,2.293c8.8,5.75,7.973,16.72,7.973,16.72
								c4.521-7.088,9.844-8.903,14.113-8.903c1.957,0,3.694,0.382,5.028,0.813c2.056,0.663,3.937,1.838,5.254,3.549
								c5.571,7.241-1.211,18.114-1.211,18.114l-57.317,51.575c-3.905-0.795-6.835-2.09-9.033-3.604
								c-9.245-6.364-6.277-20.905,4.776-22.857c0.921-0.163,1.514-0.166,1.556-0.166c0.002,0,0.002,0,0.002,0
								c-12.083-3.742-15.273-10.863-15.533-16.875c-0.34-7.866,5.795-14.642,13.593-14.641c0.168,0,0.338,0.003,0.508,0.009
								c6.623,0.249,11.745,4.074,11.745,4.074c-5.117-11.096-3.677-18.641-0.717-23.52
								C133.715,140.462,138.173,138.153,142.764,138.153 M142.764,134.808c-5.968,0-11.389,3.062-14.5,8.191
								c-3.726,6.143-3.675,12.889-2.235,18.82c-1.746-0.519-3.708-0.903-5.807-0.982c-0.212-0.008-0.423-0.012-0.633-0.012
								c-4.575,0-8.864,1.848-12.077,5.203c-3.294,3.439-5.064,8.151-4.858,12.927c0.225,5.199,2.312,11.746,10.022,16.466
								c-2.976,2.212-5.1,5.471-5.947,9.368c-1.417,6.521,1.1,12.91,6.569,16.675c2.788,1.919,6.241,3.307,10.263,4.126
								c0.222,0.045,0.445,0.067,0.667,0.067c0.819,0,1.618-0.301,2.238-0.859l57.317-51.575c0.233-0.209,0.435-0.451,0.601-0.716
								c0.327-0.524,7.931-12.946,1.024-21.924c-1.657-2.153-4.035-3.776-6.879-4.693c-2.004-0.646-4.041-0.974-6.055-0.974
								c-3.29,0-7.594,0.895-11.774,4.42c-1.146-3.918-3.538-8.461-8.482-11.692C149.375,135.789,146.106,134.808,142.764,134.808
								L142.764,134.808z"/>
						</g>
					</g>
				</g>
				<g>
					<path style="fill:#FFFFFF;" d="M339.285,109.571c-26.668-1.192-53.399,6.567-75.543,22.462
						c-0.452-0.879-0.969-2.096-1.353-3.52c-2.201-8.21,4.912-15.686,13.279-14.169c0.856,0.152,1.757,0.382,2.701,0.688
						c0,0-1.203-1.304-2.361-3.388c-5.098-9.119,4.819-19.637,14.105-14.842c3.197,1.644,6.374,4.795,8.775,10.493
						c0,0,0.079-1.339,0.589-3.124c2.635-9.156,14.766-11.141,20.166-3.297c1.027,1.496,1.837,3.367,2.203,5.709
						c0,0,1.156-3.222,4.65-4.793c3.284-1.463,7.194-0.659,9.702,1.917C337.464,105.009,338.676,106.885,339.285,109.571z"/>
					<g>
						<g>
							<path style="fill:#37291B;" d="M285.322,95.602c1.563,0,3.186,0.371,4.792,1.2c3.197,1.644,6.374,4.795,8.775,10.493
								c0,0,0.079-1.339,0.589-3.124c1.519-5.28,6.198-8.176,10.922-8.176c3.467,0,6.958,1.559,9.244,4.879
								c1.027,1.496,1.837,3.367,2.203,5.709c0,0,1.156-3.222,4.65-4.793c1.1-0.49,2.27-0.726,3.434-0.726
								c2.312,0,4.6,0.929,6.268,2.643c1.265,1.303,2.477,3.179,3.086,5.864c-1.781-0.08-3.564-0.119-5.344-0.119
								c-24.876,0-49.534,7.748-70.199,22.581c-0.452-0.879-0.969-2.096-1.353-3.52c-2.008-7.488,3.734-14.366,11.108-14.366
								c0.71,0,1.436,0.064,2.172,0.197c0.856,0.152,1.757,0.382,2.701,0.688c0,0-1.203-1.304-2.361-3.388
								C271.792,104.102,277.848,95.602,285.322,95.602 M285.322,92.257c-4.883,0-9.517,2.73-12.095,7.125
								c-2.084,3.553-2.49,7.696-1.207,11.491c-4.104,0.398-7.822,2.447-10.362,5.759c-2.786,3.632-3.697,8.278-2.499,12.747
								c0.494,1.835,1.148,3.288,1.609,4.185c0.445,0.865,1.245,1.493,2.191,1.721c0.259,0.062,0.522,0.093,0.784,0.093
								c0.693,0,1.377-0.216,1.951-0.628c19.724-14.158,43.962-21.954,68.249-21.954c1.726,0,3.473,0.039,5.194,0.116
								c0.05,0.002,0.1,0.003,0.15,0.003c0.988,0,1.929-0.438,2.566-1.2c0.669-0.801,0.926-1.868,0.696-2.885
								c-0.666-2.935-1.995-5.443-3.949-7.455c-2.264-2.325-5.422-3.657-8.667-3.657c-1.67,0-3.284,0.341-4.795,1.015
								c-0.792,0.356-1.495,0.771-2.118,1.217c-0.194-0.331-0.399-0.654-0.615-0.97c-2.771-4.025-7.145-6.331-12.002-6.331
								c-5.115,0-9.664,2.533-12.315,6.599c-1.852-2.354-4.005-4.168-6.442-5.422C289.627,92.786,287.499,92.257,285.322,92.257
								L285.322,92.257z"/>
						</g>
					</g>
				</g>
				<g>
					<path style="fill:#FFFFFF;" d="M177.516,169.056c-0.649,5.16-5.359,8.818-10.519,8.169c-5.16-0.649-8.818-5.359-8.169-10.519
						c0.649-5.16,5.359-8.818,10.519-8.169C174.508,159.186,178.165,163.895,177.516,169.056z"/>
					<g>
						<g>
							<path style="fill:#37291B;" d="M168.16,158.462c0.392,0,0.788,0.025,1.187,0.075c5.161,0.649,8.818,5.359,8.169,10.519
								c-0.599,4.761-4.655,8.243-9.332,8.243c-0.392,0-0.788-0.024-1.187-0.075c-5.16-0.649-8.818-5.359-8.169-10.519
								C159.427,161.944,163.483,158.462,168.16,158.462 M168.161,155.117L168.161,155.117c-6.411,0-11.85,4.803-12.651,11.171
								c-0.878,6.982,4.088,13.377,11.07,14.255c0.532,0.067,1.072,0.101,1.605,0.101c6.411,0,11.85-4.802,12.651-11.171
								c0.425-3.382-0.492-6.728-2.583-9.42c-2.091-2.693-5.105-4.41-8.487-4.835C169.233,155.151,168.693,155.117,168.161,155.117
								L168.161,155.117z"/>
						</g>
					</g>
				</g>
				<g>
					
						<ellipse transform="matrix(0.8739 -0.4861 0.4861 0.8739 -95.0452 79.1023)" style="fill:#FFFFFF;" cx="104.934" cy="222.735" rx="18.835" ry="18.835"/>
					<g>
						<g>
							<path style="fill:#37291B;" d="M104.91,203.898c0.784,0,1.576,0.049,2.374,0.149c10.321,1.298,17.635,10.717,16.337,21.038
								c-1.198,9.523-9.31,16.486-18.664,16.486c-0.784,0-1.576-0.049-2.374-0.149c-10.321-1.298-17.635-10.717-16.337-21.038
								C87.444,210.862,95.556,203.898,104.91,203.898 M104.911,200.553L104.911,200.553c-11.141,0-20.591,8.347-21.983,19.414
								c-1.526,12.134,7.104,23.248,19.239,24.774c0.925,0.116,1.864,0.175,2.792,0.175c11.14,0,20.591-8.346,21.983-19.414
								c0.739-5.878-0.855-11.692-4.488-16.372c-3.634-4.679-8.872-7.663-14.75-8.403
								C106.776,200.612,105.837,200.553,104.911,200.553L104.911,200.553z"/>
						</g>
					</g>
				</g>
				<path style="fill:#FFFFFF;" d="M318.493,110.457c-0.821,0.104-1.637,0.234-2.455,0.356
					C316.817,110.691,317.643,110.57,318.493,110.457z"/>
				<path style="fill:#FFFFFF;" d="M310.659,111.732c1.788-0.352,3.582-0.649,5.379-0.919c-2.963,0.463-5.22,0.93-5.22,0.93
					C310.765,111.736,310.712,111.73,310.659,111.732z"/>
				<path style="fill:#FFFFFF;" d="M322.63,110.022c-0.676,0.049-1.372,0.113-2.069,0.186c0.654-0.087,1.314-0.147,1.974-0.207
					C322.595,110.017,322.63,110.022,322.63,110.022z"/>
				<g>
					<path style="fill:#FFFFFF;" d="M246.621,146.772c-7.788,7.802-15.591,17.139-23.115,28.306
						c-7.169-3.376-11.693-11.083-10.649-19.385c1.297-10.316,10.714-17.636,21.029-16.338
						C239.171,140.019,243.67,142.819,246.621,146.772z"/>
					<g>
						<g>
							<path style="fill:#37291B;" d="M231.516,139.206c0.783,0,1.573,0.049,2.37,0.149c5.285,0.665,9.784,3.464,12.735,7.417
								c-7.789,7.802-15.591,17.139-23.115,28.306c-7.169-3.376-11.693-11.083-10.649-19.385
								C214.054,146.174,222.165,139.206,231.516,139.206 M231.517,135.861c0,0-0.001,0-0.002,0
								c-11.137,0.001-20.586,8.347-21.978,19.415c-1.202,9.555,3.839,18.729,12.543,22.829c0.458,0.216,0.944,0.319,1.423,0.319
								c1.084,0,2.136-0.527,2.776-1.476c6.964-10.336,14.604-19.693,22.708-27.811c1.173-1.175,1.307-3.033,0.313-4.364
								c-3.638-4.874-8.965-7.977-14.998-8.735C233.38,135.919,232.442,135.861,231.517,135.861L231.517,135.861z"/>
						</g>
					</g>
				</g>
				<g>
					
						<ellipse transform="matrix(0.4484 -0.8938 0.8938 0.4484 -95.6386 255.4047)" style="fill:#FFFFFF;" cx="159.118" cy="205.192" rx="34.309" ry="34.309"/>
					<g>
						<g>
							<path style="fill:#37291B;" d="M159.075,170.88c1.428,0,2.871,0.089,4.325,0.272c18.8,2.365,32.123,19.522,29.759,38.322
								c-2.182,17.346-16.958,30.031-33.997,30.031c-1.428,0-2.871-0.089-4.325-0.272c-18.8-2.365-32.124-19.522-29.759-38.322
								C127.26,183.564,142.036,170.881,159.075,170.88 M159.077,167.535c0,0-0.001,0-0.002,0
								c-18.91,0.001-34.953,14.17-37.316,32.958c-1.255,9.979,1.451,19.85,7.62,27.793c6.169,7.944,15.062,13.01,25.041,14.265
								c1.572,0.198,3.168,0.298,4.742,0.298c18.91,0,34.953-14.169,37.316-32.958c2.591-20.6-12.06-39.467-32.66-42.058
								C162.245,167.635,160.65,167.535,159.077,167.535L159.077,167.535z"/>
						</g>
					</g>
				</g>
				<g>
					<path style="fill:#FFFFFF;" d="M167.471,195.812c-0.649,5.161-5.359,8.818-10.519,8.169c-5.16-0.649-8.818-5.359-8.169-10.519
						c0.649-5.161,5.359-8.818,10.519-8.169C164.463,185.942,168.12,190.652,167.471,195.812z"/>
					<g>
						<g>
							<path style="fill:#37291B;" d="M158.115,185.219c0.392,0,0.788,0.024,1.187,0.075c5.16,0.649,8.818,5.359,8.169,10.519
								c-0.599,4.761-4.655,8.243-9.332,8.243c-0.392,0-0.788-0.024-1.187-0.075c-5.16-0.649-8.818-5.359-8.169-10.519
								C149.382,188.701,153.438,185.219,158.115,185.219 M158.116,181.874C158.115,181.874,158.115,181.874,158.116,181.874
								c-6.411,0-11.85,4.803-12.651,11.171c-0.425,3.382,0.492,6.728,2.583,9.42c2.091,2.692,5.105,4.41,8.487,4.835
								c0.532,0.067,1.072,0.101,1.605,0.101c6.411,0,11.85-4.802,12.651-11.171c0.425-3.382-0.492-6.728-2.583-9.42
								c-2.091-2.692-5.105-4.41-8.487-4.835C159.188,181.908,158.648,181.874,158.116,181.874L158.116,181.874z"/>
						</g>
					</g>
				</g>
				<g>
					<path style="fill:#FFFFFF;" d="M150.899,223.859c-0.649,5.16-5.359,8.818-10.519,8.169c-5.161-0.649-8.818-5.359-8.169-10.519
						c0.649-5.161,5.359-8.818,10.519-8.169C147.891,213.989,151.548,218.698,150.899,223.859z"/>
					<g>
						<g>
							<path style="fill:#37291B;" d="M141.544,213.265c0.392,0,0.788,0.024,1.187,0.075c5.161,0.649,8.818,5.359,8.169,10.519
								c-0.599,4.761-4.655,8.243-9.332,8.243c-0.392,0-0.788-0.025-1.187-0.075c-5.161-0.649-8.818-5.359-8.169-10.519
								C132.81,216.747,136.866,213.265,141.544,213.265 M141.544,209.92L141.544,209.92c-6.411,0-11.85,4.803-12.651,11.171
								c-0.878,6.982,4.088,13.377,11.07,14.255c0.532,0.067,1.072,0.101,1.605,0.101c6.411,0,11.85-4.802,12.651-11.171
								c0.425-3.382-0.492-6.728-2.583-9.42c-2.091-2.693-5.105-4.41-8.487-4.835C142.616,209.954,142.076,209.92,141.544,209.92
								L141.544,209.92z"/>
						</g>
					</g>
				</g>
				<g>
					<path style="fill:#FFFFFF;" d="M228.433,168.077c-7.392,10.049-14.583,21.768-21.292,35.405
						c-2.039,4.139-4.038,8.452-5.979,12.952c-3.125,7.227-5.934,14.574-8.443,22.022c-3.072,9.083-5.689,18.312-7.89,27.648
						l-37.699,15.698l-66.959-8.422c0,0-4.969-12.274,6.275-17.006c0,0-3.784-3.156-4.448-8.814
						c-0.81-6.981,4.79-12.94,11.814-12.959c4.173-0.011,9.448,1.305,15.311,5.83c0,0-4.423-8.659-1.689-17.891
						c2.208-7.468,10.123-11.805,17.528-9.382c5.303,1.73,11.542,6.106,16.627,16.322c0,0,5.761-9.933,20.297-5.97
						c0,0-6.253-2.278-9.021-8.326c-3.288-7.167,1.205-15.33,8.934-16.913c3.457-0.709,7.794-0.458,12.903,2.034
						c0,0-11.088-6.451-9.257-20.014c1.3-9.556,10.41-15.861,19.855-13.887c5.718,1.202,12.042,4.472,16.762,12.194
						c-0.02-0.413-0.383-6.543,2.348-11.917c3.243-6.391,11.176-8.528,17.39-4.951C224.047,163.032,226.405,165.026,228.433,168.077
						z"/>
					<g>
						<g>
							<path style="fill:#37291B;" d="M215.382,160.004c2.173,0,4.387,0.559,6.416,1.727c2.248,1.301,4.606,3.295,6.634,6.346
								c-7.392,10.049-14.583,21.768-21.292,35.405c-2.039,4.139-4.038,8.452-5.979,12.952c-3.125,7.227-5.934,14.574-8.443,22.022
								c-3.072,9.083-5.689,18.312-7.89,27.648l-37.699,15.698l-66.959-8.422c0,0-4.969-12.274,6.275-17.006
								c0,0-3.784-3.156-4.448-8.814c-0.81-6.981,4.79-12.94,11.814-12.959c0.017,0,0.035,0,0.052,0c4.165,0,9.42,1.323,15.259,5.83
								c0,0-4.423-8.659-1.689-17.891c1.791-6.058,7.338-10.056,13.322-10.056c1.392,0,2.808,0.216,4.206,0.674
								c5.303,1.73,11.542,6.106,16.627,16.322c0,0,4.005-6.904,13.758-6.904c1.947,0,4.12,0.275,6.539,0.934
								c0,0-6.253-2.278-9.021-8.326c-3.288-7.167,1.205-15.33,8.934-16.913c1.06-0.217,2.203-0.344,3.424-0.344
								c2.764,0,5.936,0.65,9.479,2.378c0,0-11.088-6.451-9.257-20.014c1.139-8.372,8.273-14.249,16.374-14.249
								c1.146,0,2.31,0.117,3.48,0.362c5.718,1.202,12.043,4.472,16.762,12.194c-0.02-0.413-0.383-6.543,2.348-11.917
								C206.592,162.378,210.902,160.004,215.382,160.004 M215.383,156.658L215.383,156.658c-5.946,0-11.294,3.261-13.957,8.509
								c-0.852,1.678-1.445,3.404-1.854,5.048c-3.809-3.587-8.404-5.997-13.584-7.086c-1.378-0.288-2.779-0.433-4.168-0.433
								c-9.895,0-18.359,7.37-19.689,17.143c-0.833,6.17,0.613,11.064,2.698,14.745c-1.25,0.024-2.493,0.161-3.701,0.409
								c-4.817,0.986-8.84,4.036-11.037,8.368c-2.112,4.164-2.209,8.982-0.266,13.216c0.498,1.088,1.087,2.075,1.728,2.966
								c-4.158,0.709-7.209,2.51-9.294,4.25c-4.377-7.081-9.832-11.721-16.259-13.818c-1.7-0.556-3.465-0.839-5.244-0.839
								c-7.565,0-14.362,5.121-16.529,12.453c-1.246,4.21-1.202,8.285-0.694,11.67c-3.189-1.333-6.421-2.005-9.667-2.005l-0.063,0
								c-4.397,0.012-8.58,1.888-11.476,5.148c-2.846,3.204-4.142,7.303-3.65,11.542c0.369,3.144,1.528,5.671,2.699,7.506
								c-3.455,2.636-5.418,6.444-5.624,11.051c-0.19,4.265,1.165,7.75,1.32,8.133c0.455,1.123,1.481,1.913,2.683,2.064
								l66.959,8.422c0.139,0.017,0.278,0.026,0.417,0.026c0.44,0,0.877-0.087,1.286-0.257l37.699-15.698
								c0.991-0.413,1.724-1.276,1.97-2.32c2.208-9.363,4.833-18.562,7.804-27.344c2.497-7.412,5.304-14.734,8.344-21.766
								c1.86-4.31,3.848-8.616,5.91-12.801c6.28-12.765,13.34-24.507,20.986-34.901c0.833-1.132,0.869-2.664,0.091-3.834
								c-2.084-3.136-4.69-5.622-7.745-7.39C220.998,157.41,218.202,156.658,215.383,156.658L215.383,156.658z"/>
						</g>
					</g>
				</g>
				<g>
					<path style="fill:#FFFFFF;" d="M236.169,168.118c-0.649,5.16-5.359,8.818-10.519,8.169c-5.161-0.649-8.818-5.359-8.169-10.519
						c0.649-5.161,5.359-8.818,10.519-8.169C233.161,158.248,236.818,162.957,236.169,168.118z"/>
					<g>
						<g>
							<path style="fill:#37291B;" d="M226.813,157.524c0.392,0,0.788,0.024,1.187,0.075c5.16,0.649,8.818,5.359,8.169,10.519
								c-0.599,4.761-4.655,8.243-9.332,8.243c-0.392,0-0.788-0.024-1.187-0.075c-5.161-0.649-8.818-5.359-8.169-10.519
								C218.08,161.006,222.136,157.524,226.813,157.524 M226.813,154.179C226.813,154.179,226.813,154.179,226.813,154.179
								c-6.411,0-11.85,4.803-12.651,11.171c-0.425,3.382,0.492,6.728,2.583,9.42c2.091,2.693,5.105,4.41,8.488,4.835
								c0.532,0.067,1.072,0.101,1.605,0.101c6.411,0,11.85-4.802,12.651-11.171c0.425-3.382-0.492-6.728-2.583-9.42
								c-2.091-2.693-5.105-4.41-8.487-4.835C227.886,154.213,227.346,154.179,226.813,154.179L226.813,154.179z"/>
						</g>
					</g>
				</g>
				<g>
					<path style="fill:#FFFFFF;" d="M307.057,117.814c-0.649,5.16-5.359,8.818-10.519,8.169c-5.16-0.649-8.818-5.359-8.169-10.519
						c0.649-5.16,5.359-8.818,10.519-8.169C304.049,107.944,307.706,112.653,307.057,117.814z"/>
					<g>
						<g>
							<path style="fill:#37291B;" d="M297.702,107.22c0.392,0,0.788,0.024,1.187,0.075c5.16,0.649,8.818,5.359,8.169,10.519
								c-0.599,4.761-4.655,8.243-9.332,8.243c-0.392,0-0.788-0.024-1.187-0.075c-5.16-0.649-8.818-5.359-8.169-10.519
								C288.969,110.702,293.024,107.22,297.702,107.22 M297.702,103.875C297.702,103.875,297.702,103.875,297.702,103.875
								c-6.411,0-11.85,4.803-12.651,11.171c-0.878,6.982,4.088,13.377,11.07,14.255c0.532,0.067,1.072,0.101,1.604,0.101
								c6.411,0,11.85-4.802,12.651-11.171c0.425-3.382-0.492-6.728-2.583-9.42c-2.091-2.692-5.105-4.41-8.487-4.835
								C298.774,103.909,298.235,103.875,297.702,103.875L297.702,103.875z"/>
						</g>
					</g>
				</g>
				<g>
					<path style="fill:#FFFFFF;" d="M191.522,235.284c-0.649,5.16-5.359,8.818-10.519,8.169c-5.16-0.649-8.818-5.359-8.169-10.519
						c0.649-5.161,5.359-8.818,10.519-8.169C188.514,225.414,192.171,230.124,191.522,235.284z"/>
					<g>
						<g>
							<path style="fill:#37291B;" d="M182.166,224.691c0.392,0,0.788,0.024,1.187,0.075c5.161,0.649,8.818,5.359,8.169,10.519
								c-0.599,4.761-4.655,8.243-9.332,8.243c-0.392,0-0.788-0.024-1.187-0.075c-5.16-0.649-8.818-5.359-8.169-10.519
								C173.433,228.172,177.489,224.691,182.166,224.691 M182.166,221.346L182.166,221.346c-6.411,0-11.85,4.803-12.651,11.171
								c-0.878,6.982,4.088,13.377,11.07,14.255c0.532,0.067,1.072,0.101,1.604,0.101c6.411,0,11.85-4.802,12.651-11.171
								c0.425-3.382-0.492-6.728-2.583-9.42c-2.091-2.692-5.105-4.41-8.487-4.835C183.239,221.38,182.699,221.346,182.166,221.346
								L182.166,221.346z"/>
						</g>
					</g>
				</g>
				<g>
					<path style="fill:#FFFFFF;" d="M212.262,197.585c-0.649,5.16-5.359,8.818-10.519,8.169c-5.16-0.649-8.818-5.359-8.169-10.519
						c0.649-5.16,5.359-8.818,10.519-8.169C209.254,187.714,212.911,192.424,212.262,197.585z"/>
					<g>
						<g>
							<path style="fill:#37291B;" d="M202.906,186.991c0.392,0,0.788,0.024,1.187,0.075c5.16,0.649,8.818,5.359,8.169,10.519
								c-0.599,4.761-4.655,8.243-9.332,8.243c-0.392,0-0.788-0.024-1.187-0.075c-5.16-0.649-8.818-5.359-8.169-10.519
								C194.173,190.473,198.229,186.991,202.906,186.991 M202.906,183.646C202.906,183.646,202.906,183.646,202.906,183.646
								c-6.411,0-11.85,4.803-12.651,11.171c-0.878,6.982,4.088,13.377,11.07,14.255c0.532,0.067,1.071,0.101,1.604,0.101
								c6.411,0,11.85-4.802,12.651-11.171c0.425-3.382-0.492-6.728-2.583-9.42c-2.091-2.692-5.105-4.41-8.487-4.835
								C203.979,183.68,203.439,183.646,202.906,183.646L202.906,183.646z"/>
						</g>
					</g>
				</g>
				<g>
					<path style="fill:#FFFFFF;" d="M207.141,203.482c-2.039,4.139-4.038,8.452-5.979,12.952
						c-3.125,7.227-5.934,14.574-8.443,22.022c-4.135-4.344-6.351-10.447-5.544-16.858
						C188.467,211.318,197.093,203.746,207.141,203.482z"/>
					<g>
						<g>
							<path style="fill:#37291B;" d="M207.141,203.482c-2.039,4.139-4.038,8.452-5.979,12.952
								c-3.125,7.227-5.934,14.574-8.443,22.022c-4.135-4.344-6.351-10.447-5.544-16.858
								C188.467,211.318,197.093,203.746,207.141,203.482 M207.141,200.137c-0.029,0-0.059,0-0.088,0.001
								c-11.755,0.309-21.728,9.355-23.198,21.042c-0.905,7.194,1.443,14.331,6.441,19.582c0.639,0.671,1.518,1.039,2.423,1.039
								c0.241,0,0.483-0.026,0.723-0.079c1.144-0.253,2.073-1.087,2.447-2.198c2.496-7.409,5.303-14.731,8.343-21.762
								c1.86-4.31,3.848-8.616,5.91-12.801c0.518-1.051,0.448-2.296-0.184-3.283C209.342,200.716,208.279,200.137,207.141,200.137
								L207.141,200.137z M207.141,206.827h0.005H207.141L207.141,206.827z"/>
						</g>
					</g>
				</g>
				<g>
					<g>
						<path style="fill:#FFFFFF;" d="M193.266,236.872c-4.528,13.134-8.115,26.592-10.831,40.231l-0.527,2.623l-4.196,21.073
							l-1.247,0.111c-1.816,0.165-3.617-0.508-4.88-1.829l-19.572-20.391c-1.603-1.676-2.1-4.114-1.292-6.273l10.954-29.273
							c0.808-2.167,2.784-3.67,5.089-3.88L193.266,236.872z"/>
						<g>
							<g>
								<path style="fill:#37291B;" d="M193.266,236.872c-4.528,13.134-8.115,26.592-10.831,40.231l-0.527,2.623l-4.196,21.073
									l-1.247,0.111c-0.18,0.016-0.361,0.025-0.54,0.025c-1.628,0-3.202-0.664-4.339-1.853l-19.572-20.391
									c-1.603-1.676-2.1-4.114-1.292-6.273l10.954-29.273c0.809-2.167,2.784-3.67,5.089-3.88L193.266,236.872 M193.267,233.527
									c-0.1,0-0.201,0.005-0.301,0.014l-26.503,2.393c-3.566,0.326-6.674,2.697-7.922,6.042l-10.952,29.27
									c-1.251,3.344-0.463,7.174,2.008,9.757l19.576,20.395c1.751,1.83,4.214,2.882,6.753,2.882c0.28,0,0.563-0.013,0.842-0.038
									l1.242-0.111c1.479-0.132,2.694-1.223,2.984-2.679l4.196-21.073l0.525-2.618c2.73-13.707,6.334-27.096,10.714-39.799
									c0.37-1.073,0.171-2.26-0.529-3.153C195.263,233.996,194.289,233.527,193.267,233.527L193.267,233.527z M193.266,240.217
									h0.005H193.266L193.266,240.217z"/>
							</g>
						</g>
						
							<line style="fill:none;stroke:#37291B;stroke-width:3.345;stroke-linecap:round;stroke-linejoin:round;stroke-miterlimit:10;" x1="186.587" y1="266.43" x2="173.821" y2="300.554"/>
					</g>
					<g>
						<g>
							<g>
								<path style="fill:#37291B;" d="M193.265,236.881c-3.093,8.964-5.741,18.083-7.972,27.298
									c-0.163-0.128-0.323-0.273-0.472-0.435l-19.581-20.392c-0.262-0.272-0.496-0.568-0.701-0.88
									c-0.717-1.095-0.145-2.639,1.114-3c0.36-0.104,0.732-0.174,1.111-0.207L193.265,236.881 M193.266,233.536
									c-0.1,0-0.2,0.005-0.3,0.014l-26.501,2.384c-0.579,0.051-1.165,0.16-1.735,0.324c-1.608,0.462-2.92,1.686-3.51,3.275
									c-0.59,1.589-0.395,3.374,0.521,4.773c0.32,0.488,0.686,0.948,1.089,1.367l19.559,20.37
									c0.256,0.274,0.538,0.533,0.839,0.769c0.598,0.469,1.327,0.714,2.066,0.714c0.368,0,0.738-0.061,1.096-0.185
									c1.075-0.373,1.887-1.267,2.155-2.373c2.234-9.226,4.886-18.308,7.883-26.994c0.37-1.072,0.171-2.259-0.528-3.153
									C195.262,234.005,194.288,233.536,193.266,233.536L193.266,233.536z M193.265,240.226h0.005H193.265L193.265,240.226z"/>
							</g>
						</g>
					</g>
				</g>
				<g>
					
						<ellipse transform="matrix(0.7944 -0.6074 0.6074 0.7944 -134.5441 139.236)" style="fill:#FFFFFF;" cx="138.377" cy="268.337" rx="18.835" ry="18.835"/>
					<g>
						<g>
							<path style="fill:#37291B;" d="M138.353,249.5c0.784,0,1.576,0.049,2.374,0.149c10.321,1.298,17.635,10.717,16.337,21.038
								c-1.198,9.523-9.31,16.486-18.664,16.486c-0.784,0-1.576-0.049-2.374-0.149c-10.321-1.298-17.635-10.717-16.337-21.038
								C120.887,256.464,128.999,249.5,138.353,249.5 M138.354,246.155L138.354,246.155c-11.141,0.001-20.591,8.347-21.983,19.414
								c-1.526,12.134,7.104,23.248,19.239,24.775c0.925,0.116,1.865,0.175,2.792,0.175c11.14,0,20.591-8.346,21.983-19.414
								c1.526-12.134-7.104-23.248-19.239-24.774C140.219,246.214,139.281,246.155,138.354,246.155L138.354,246.155z"/>
						</g>
					</g>
				</g>
				<g>
					
						<ellipse transform="matrix(0.8165 -0.5773 0.5773 0.8165 -144.1136 110.7158)" style="fill:#FFFFFF;" cx="102.125" cy="282.082" rx="26.346" ry="26.346"/>
					<g>
						<g>
							<path style="fill:#37291B;" d="M102.091,255.732c1.097,0,2.204,0.068,3.321,0.209c14.437,1.816,24.668,14.991,22.853,29.428
								c-1.675,13.32-13.022,23.061-26.107,23.061c-1.097,0-2.204-0.068-3.321-0.209c-14.437-1.816-24.668-14.991-22.853-29.428
								C77.66,265.473,89.007,255.733,102.091,255.732 M102.093,252.387c0,0-0.001,0-0.001,0
								c-14.912,0.001-27.563,11.173-29.426,25.989c-0.99,7.869,1.144,15.652,6.008,21.916c4.864,6.264,11.877,10.259,19.746,11.249
								c1.239,0.156,2.497,0.235,3.738,0.235c14.912,0,27.563-11.173,29.426-25.989c2.043-16.244-9.51-31.121-25.754-33.165
								C104.591,252.466,103.333,252.387,102.093,252.387L102.093,252.387z"/>
						</g>
					</g>
				</g>
				<g>
					<path style="fill:#FFFFFF;" d="M96.22,285.884l15.084,29.927c1.048,2.079,0.212,4.615-1.867,5.663L79.51,336.557
						c-2.079,1.048-4.615,0.212-5.663-1.867l-15.084-29.927c-1.048-2.079-0.212-4.615,1.867-5.663l29.927-15.084
						C92.637,282.968,95.172,283.804,96.22,285.884z"/>
					<g>
						<g>
							<path style="fill:#37291B;" d="M92.452,283.564c1.542,0,3.027,0.849,3.768,2.319l15.084,29.927
								c1.048,2.079,0.212,4.615-1.867,5.663L79.51,336.557c-0.609,0.307-1.256,0.452-1.894,0.452c-1.542,0-3.027-0.849-3.768-2.319
								l-15.084-29.927c-1.048-2.079-0.212-4.615,1.867-5.663l29.927-15.084C91.166,283.71,91.814,283.564,92.452,283.564
								 M92.452,280.219C92.452,280.219,92.452,280.219,92.452,280.219c-1.173,0-2.349,0.28-3.4,0.81l-29.927,15.084
								c-3.723,1.877-5.225,6.432-3.349,10.155l15.084,29.927c1.293,2.565,3.882,4.159,6.755,4.159c1.173,0,2.348-0.28,3.4-0.81
								l29.927-15.084c1.804-0.909,3.145-2.466,3.778-4.384c0.632-1.918,0.48-3.968-0.429-5.771l-15.084-29.927
								C97.914,281.813,95.326,280.219,92.452,280.219L92.452,280.219z"/>
						</g>
					</g>
				</g>
				<g>
					<path style="fill:#FFFFFF;" d="M181.909,279.726l-7.405,37.214l-1.601,8.044l-16.524,15.252L107.79,329.65
						c1.16-14.621,9.366-16.867,9.366-16.867c-4.372,0.174-7.669-0.536-10.149-1.696c-8.226-3.849-7.086-15.962,1.624-18.52
						c8.089-2.377,16.658,2.863,17.039,3.099c-7.173-7.173-7.765-14.046-6.366-19.346c1.948-7.393,10.176-11.012,16.968-7.487
						c10.357,5.376,9.286,17.579,9.286,17.579c1.036-6.677,4.123-10.335,7.279-12.342c6.341-4.035,14.56,0.438,14.615,7.957
						c0.008,1.922-0.257,3.318-0.257,3.318C171.14,279.899,178.046,279.472,181.909,279.726z"/>
					<g>
						<g>
							<path style="fill:#37291B;" d="M130.755,267.471c1.845,0,3.73,0.433,5.517,1.36c10.356,5.376,9.286,17.579,9.286,17.579
								c1.036-6.677,4.123-10.335,7.279-12.342c1.639-1.043,3.406-1.518,5.123-1.518c4.924,0,9.451,3.9,9.492,9.476
								c0.008,1.922-0.257,3.318-0.257,3.318c3.427-4.729,9.088-5.672,13.048-5.672c0.599,0,1.159,0.022,1.666,0.055l-7.405,37.214
								l-1.601,8.044l-16.524,15.252L107.79,329.65c1.16-14.621,9.366-16.867,9.366-16.867c-0.441,0.018-0.871,0.026-1.29,0.026
								c-3.739,0-6.629-0.679-8.86-1.723c-8.226-3.849-7.086-15.962,1.624-18.52c1.489-0.438,2.995-0.617,4.463-0.617
								c6.504,0,12.265,3.524,12.576,3.716c-7.173-7.173-7.765-14.046-6.366-19.346C120.739,270.87,125.586,267.471,130.755,267.471
								 M130.755,264.126c-6.887,0-12.926,4.663-14.685,11.34c-0.936,3.545-1.243,8.27,0.926,13.477
								c-1.249-0.212-2.559-0.34-3.902-0.34c-1.887,0-3.706,0.253-5.406,0.753c-5.383,1.581-9.138,6.243-9.567,11.877
								c-0.426,5.591,2.436,10.527,7.469,12.882c1.054,0.493,2.182,0.897,3.382,1.212c-2.112,2.987-3.992,7.448-4.516,14.057
								c-0.132,1.668,0.988,3.177,2.622,3.533l48.588,10.587c0.236,0.052,0.475,0.077,0.712,0.077c0.832,0,1.645-0.311,2.269-0.887
								l16.524-15.252c0.52-0.479,0.874-1.111,1.012-1.805l1.601-8.044l7.405-37.214c0.188-0.945-0.04-1.925-0.627-2.689
								c-0.586-0.764-1.474-1.239-2.435-1.302c-0.627-0.041-1.262-0.062-1.885-0.062c-2.968,0-6.616,0.458-9.968,2.144
								c-1.571-5.347-6.511-9.265-12.316-9.265c-2.428,0-4.82,0.706-6.919,2.041c-1.376,0.875-2.91,2.124-4.324,3.887
								c-1.593-3.421-4.306-6.884-8.904-9.271C135.593,264.71,133.218,264.126,130.755,264.126L130.755,264.126z"/>
						</g>
					</g>
				</g>
				<g>
					
						<ellipse transform="matrix(0.797 -0.604 0.604 0.797 -188.9771 131.5168)" style="fill:#FFFFFF;" cx="101.142" cy="346.86" rx="38.925" ry="38.925"/>
					<g>
						<g>
							<path style="fill:#37291B;" d="M101.093,307.931c1.62,0,3.257,0.101,4.907,0.308c21.33,2.683,36.446,22.149,33.763,43.478
								c-2.475,19.68-19.24,34.072-38.572,34.072c-1.62,0-3.257-0.101-4.907-0.308c-21.33-2.683-36.446-22.149-33.763-43.478
								C64.996,322.323,81.761,307.932,101.093,307.931 M101.094,304.586v3.345V304.586c-0.001,0-0.002,0-0.002,0
								c-21.229,0.001-39.238,15.907-41.89,36.999c-1.409,11.203,1.629,22.283,8.554,31.201
								c6.925,8.918,16.908,14.605,28.111,16.014c1.765,0.222,3.556,0.335,5.324,0.335c21.229,0,39.238-15.906,41.891-36.999
								c1.409-11.202-1.629-22.283-8.554-31.201c-6.925-8.918-16.908-14.605-28.111-16.014
								C104.651,304.699,102.861,304.586,101.094,304.586L101.094,304.586z"/>
						</g>
					</g>
				</g>
				<g>
					<path style="fill:#FFFFFF;" d="M179.284,292.921l-4.781,24.019l-1.601,8.044l-3.77,18.893
						c-1.03,5.204-2.675,10.258-4.919,15.033c-1.826,3.933-4.071,7.653-6.721,11.107c-0.257-0.014-0.506-0.028-0.761-0.06
						c-0.31-0.021-0.62-0.042-0.937-0.082c-0.345-0.026-0.697-0.07-1.049-0.114c-22.478-2.827-38.408-23.341-35.581-45.819
						c2.827-22.478,23.341-38.408,45.819-35.581c0.642,0.081,1.29,0.18,1.92,0.286c0.743,0.129,1.484,0.276,2.213,0.448
						c0.312,0.075,0.624,0.15,0.936,0.225c0.71,0.179,1.417,0.384,2.114,0.596c0.309,0.101,0.609,0.202,0.918,0.303
						C175.243,290.957,177.31,291.86,179.284,292.921z"/>
					<g>
						<g>
							<path style="fill:#37291B;" d="M159.813,288.037c1.708,0,3.433,0.106,5.171,0.325c0.642,0.081,1.29,0.18,1.92,0.286
								c0.743,0.129,1.484,0.276,2.213,0.448c0.312,0.075,0.624,0.15,0.936,0.225c0.71,0.179,1.417,0.384,2.114,0.596
								c0.309,0.101,0.609,0.202,0.918,0.303c2.159,0.736,4.225,1.639,6.2,2.7l-4.781,24.019l-1.601,8.044l-3.77,18.893
								c-1.03,5.204-2.675,10.259-4.919,15.033c-1.826,3.933-4.071,7.653-6.721,11.107c-0.257-0.014-0.506-0.028-0.761-0.06
								c-0.31-0.021-0.62-0.042-0.937-0.082c-0.345-0.026-0.697-0.07-1.049-0.114c-22.478-2.827-38.408-23.341-35.581-45.819
								C121.774,303.203,139.44,288.038,159.813,288.037 M159.814,284.692c0,0-0.001,0-0.002,0
								c-22.281,0.001-41.182,16.695-43.967,38.833c-1.479,11.758,1.709,23.388,8.978,32.748
								c7.268,9.36,17.746,15.329,29.504,16.807c0.38,0.048,0.76,0.094,1.135,0.125c0.322,0.038,0.639,0.062,0.956,0.084
								c0.319,0.036,0.605,0.053,0.861,0.067c0.063,0.004,0.126,0.005,0.189,0.005c1.039,0,2.043-0.48,2.678-1.308
								c2.779-3.623,5.169-7.571,7.101-11.735c2.337-4.972,4.078-10.29,5.166-15.792l3.769-18.888l1.602-8.046l4.781-24.019
								c0.287-1.443-0.402-2.903-1.697-3.6c-2.142-1.151-4.398-2.134-6.704-2.92l-0.48-0.159l-0.475-0.157
								c-0.022-0.007-0.044-0.014-0.066-0.021c-0.876-0.267-1.598-0.471-2.274-0.641l-0.3-0.072l-0.67-0.161
								c-0.764-0.18-1.551-0.34-2.422-0.491c-0.771-0.13-1.444-0.23-2.076-0.31C163.549,284.81,161.669,284.692,159.814,284.692
								L159.814,284.692z"/>
						</g>
					</g>
				</g>
				<g>
					
						<ellipse transform="matrix(0.9165 -0.4 0.4 0.9165 -133.5741 68.3914)" style="fill:#FFFFFF;" cx="97.075" cy="354.231" rx="18.835" ry="18.835"/>
					<g>
						<g>
							<path style="fill:#37291B;" d="M97.051,335.395c0.784,0,1.576,0.049,2.374,0.149c10.321,1.298,17.635,10.717,16.337,21.038
								c-1.198,9.523-9.31,16.486-18.664,16.486c-0.784,0-1.576-0.049-2.374-0.149c-10.321-1.298-17.635-10.717-16.337-21.038
								C79.585,342.358,87.697,335.395,97.051,335.395 M97.052,332.049C97.052,332.049,97.052,332.049,97.052,332.049
								c-11.141,0-20.591,8.347-21.983,19.414c-0.739,5.878,0.855,11.692,4.488,16.372c3.634,4.679,8.872,7.663,14.75,8.403
								c0.925,0.116,1.865,0.175,2.792,0.175c11.14,0,20.591-8.346,21.983-19.414c1.526-12.134-7.104-23.248-19.239-24.775
								C98.917,332.108,97.978,332.049,97.052,332.049L97.052,332.049z"/>
						</g>
					</g>
				</g>
				<g>
					<path style="fill:#FFFFFF;" d="M165.223,355.72c-1.961,4.229-4.411,8.218-7.32,11.89c-1.975,2.494-4.263,4.985-6.899,7.333
						c-5.322,4.744-12.072,8.907-20.571,11.348c-7.257,2.08-14.902,2.494-22.395,1.552l-13.719-1.726
						c-3.834-0.482-7.433-1.632-10.696-3.319c-0.494-1.259-0.915-2.67-1.179-4.195c-1.775-10.175,7.585-19.039,17.538-16.277
						c1.986,0.545,4.117,1.5,6.369,2.99c0,0-5.898-8.576-4.018-19.408c1.489-8.568,10.3-13.918,18.475-10.942
						c6.348,2.299,13.254,7.983,16.326,21.34c0,0,0.016-1.758,0.561-4.101c2.245-9.607,14.095-13.128,21.369-6.469
						C161.548,348.004,163.904,351.221,165.223,355.72z"/>
					<g>
						<g>
							<path style="fill:#37291B;" d="M116.141,334.135c1.543,0,3.116,0.265,4.668,0.829c6.348,2.299,13.254,7.983,16.326,21.341
								c0,0,0.016-1.758,0.561-4.101c1.454-6.225,6.943-9.895,12.606-9.895c3.076,0,6.203,1.083,8.763,3.426
								c2.484,2.269,4.84,5.486,6.159,9.985c-1.961,4.229-4.411,8.218-7.32,11.89c-1.975,2.494-4.263,4.985-6.899,7.333
								c-5.322,4.744-12.072,8.907-20.571,11.349c-4.829,1.384-9.829,2.031-14.843,2.031c-2.521,0-5.045-0.163-7.552-0.479
								l-13.719-1.726c-3.834-0.482-7.433-1.632-10.696-3.319c-0.494-1.259-0.915-2.67-1.179-4.195
								c-1.552-8.895,5.407-16.788,13.831-16.788c1.213,0,2.454,0.163,3.707,0.511c1.986,0.545,4.117,1.5,6.369,2.99
								c0,0-5.898-8.576-4.018-19.408C103.54,338.965,109.553,334.135,116.141,334.135 M116.141,330.79
								c-8.446,0-15.638,6.117-17.103,14.544c-0.894,5.149-0.239,9.824,0.824,13.518c-1.184-0.254-2.387-0.383-3.587-0.383
								c-5.06,0-9.881,2.283-13.226,6.262c-3.379,4.02-4.8,9.285-3.9,14.446c0.282,1.629,0.74,3.26,1.36,4.841
								c0.296,0.755,0.857,1.377,1.577,1.75c3.697,1.912,7.672,3.146,11.815,3.667l13.719,1.726
								c2.664,0.335,5.345,0.505,7.969,0.505c5.46,0,10.764-0.727,15.764-2.16c8.165-2.346,15.524-6.405,21.876-12.067
								c2.602-2.319,5.057-4.927,7.295-7.753c3.052-3.852,5.654-8.078,7.732-12.559c0.341-0.736,0.404-1.57,0.175-2.349
								c-1.333-4.547-3.726-8.421-7.113-11.514c-3.029-2.773-6.943-4.302-11.019-4.302c-5.463,0-10.361,2.636-13.331,6.833
								c-2.896-5.806-7.549-11.27-15.023-13.977C120.073,331.137,118.117,330.79,116.141,330.79L116.141,330.79z"/>
						</g>
					</g>
				</g>
				<g>
					<path style="fill:#FFFFFF;" d="M174.503,316.94l-5.371,26.937c-1.947,9.796-6.037,19.091-12.239,26.922
						c-1.975,2.494-4.263,4.985-6.899,7.333c-1.913-2.117-2.917-5.075-2.393-8.18c0.551-3.316,2.21-7.557,6.68-10.782
						c0,0-10.915-0.578-13.951-9.044c-1.593-4.453-0.508-9.524,2.786-12.916c2.927-3.027,8.113-5.483,16.942-2.237
						c-0.284-0.366-5.59-7.117-2.598-14.433c1.984-4.834,7.358-7.507,12.386-6.071C171.417,314.917,173.037,315.675,174.503,316.94z
						"/>
					<g>
						<g>
							<path style="fill:#37291B;" d="M167.081,314.082c0.919,0,1.848,0.125,2.767,0.388c1.57,0.448,3.189,1.205,4.656,2.471
								l-5.371,26.937c-1.947,9.796-6.037,19.091-12.239,26.922c-1.975,2.494-4.263,4.985-6.899,7.333
								c-1.913-2.117-2.917-5.075-2.393-8.18c0.551-3.316,2.21-7.557,6.68-10.782c0,0-10.915-0.578-13.951-9.044
								c-1.593-4.453-0.508-9.524,2.786-12.916c1.946-2.012,4.891-3.772,9.241-3.772c2.193,0,4.743,0.447,7.701,1.535
								c-0.284-0.366-5.59-7.117-2.598-14.433C159.083,316.59,162.97,314.082,167.081,314.082 M167.081,310.737
								C167.081,310.737,167.081,310.737,167.081,310.737c-5.51,0-10.62,3.43-12.714,8.534c-1.641,4.011-1.341,7.816-0.437,10.885
								c-0.532-0.042-1.057-0.062-1.572-0.062c-4.587,0-8.614,1.657-11.645,4.792c-4.165,4.288-5.553,10.715-3.531,16.368
								c2.014,5.616,6.602,8.44,10.496,9.854c-2.061,2.905-2.98,5.919-3.376,8.297c-0.671,3.97,0.499,7.972,3.211,10.972
								c0.66,0.73,1.569,1.102,2.482,1.102c0.792,0,1.587-0.28,2.224-0.848c2.603-2.319,5.058-4.928,7.296-7.754
								c6.345-8.012,10.805-17.814,12.898-28.347l5.371-26.935c0.236-1.182-0.183-2.399-1.095-3.187
								c-1.684-1.453-3.677-2.514-5.924-3.155C169.567,310.91,168.327,310.737,167.081,310.737L167.081,310.737z"/>
						</g>
					</g>
				</g>
			</g>
			<g>
				<path style="fill:#37291B;" d="M142.623,351.255c0,0-3.233-7.03,1.376-12.534c1.844-2.201,4.536-3.538,7.388-3.871
					c2.668-0.311,6.576-0.142,11.38,1.863c0,0-9.148-10.139-1.601-19.076c0,0-5.802,10.366,5.27,21.336c0,0-6.86-2.528-12.867-2.437
					c-4.525,0.068-8.592,1.995-10.457,6.118C142.135,344.815,141.656,347.665,142.623,351.255z"/>
				<path style="fill:#37291B;" d="M107.645,368.188c0,0-8.655-6.922-16.576-3.015c-3.611,1.781-6.126,5.289-6.816,9.256
					c-0.488,2.801-0.356,6.613,1.825,11.097l2.029,0.255c0,0-3.946-4.616-2.731-10.838c0.778-3.985,3.525-7.409,7.307-8.886
					C96.02,364.754,101.014,364.398,107.645,368.188z"/>
				<path style="fill:#37291B;" d="M176.571,293.149c0,0-28.598-13.231-49.164,13.311c0,0,17.97-23.922,48.953-11.637
					L176.571,293.149z"/>
				<path style="fill:#37291B;" d="M137.777,299.747c0,0,8.566-6.059,22.956-6.482C160.733,293.265,148.244,290.815,137.777,299.747
					z"/>
				<g>
					<path style="fill:#37291B;" d="M68.922,364.654c0,0-8.563-14.782-1.793-31.721c2.523-6.312,6.92-11.716,12.419-15.713
						c6.169-4.483,15.888-9.198,27.696-6.835c0,0-9.69-1.127-20.629,4.311c-10.562,5.25-18.257,15.11-20.3,26.726
						C65.197,347.779,65.368,355.711,68.922,364.654z"/>
					<path style="fill:#37291B;" d="M70.624,333.379c0,0,8.239-14.143,25.108-19.422C95.732,313.957,81.953,313.497,70.624,333.379z
						"/>
				</g>
				<path style="fill:#37291B;" d="M120.183,277.651c0,0,1.647-7.68,9.054-8.702c3.506-0.483,7.093,0.737,9.604,3.23
					c2.293,2.276,4.698,6.167,5.15,12.625c0,0-0.671-5.579-4.232-10.07c-3.303-4.165-8.979-5.916-13.792-3.661
					C123.733,272.12,121.527,274.074,120.183,277.651z"/>
				<path style="fill:#37291B;" d="M169.672,284.088c0,0,3.544-3.615,9.284-3.448l-0.116,0.922
					C178.84,281.563,174.454,280.837,169.672,284.088z"/>
				<path style="fill:#37291B;" d="M132.434,252.225c0,0,7.594-3.108,14.857,1.169c3.766,2.217,6.511,5.902,7.614,10.131
					c0.599,2.294,0.863,5.148,0.077,8.279l-1.768,0.579c0,0,2.975-7.582-2.501-14.337
					C150.712,258.045,144.798,249.084,132.434,252.225z"/>
				<path style="fill:#37291B;" d="M77.767,283.323c0,0-1.112-8.345,5.015-16.236c3.03-3.902,7.272-6.702,11.988-8.171
					c4.764-1.484,11.615-2.367,18.7,0.934c0,0-2.697-1.018-6.862-1.261c-14.585-0.851-27.441,9.81-28.808,24.355
					C77.788,283.07,77.777,283.196,77.767,283.323z"/>
				<path style="fill:#37291B;" d="M108.578,230.77c0,0-1.535-11.852,7.414-15.834c3.458-1.539,7.465-1.225,10.805,0.557
					c4.064,2.169,9.9,6.869,14.811,16.971c0,0,5.437-11.766,19.442-7.956c0,0-13.975-2.658-19.339,11.984
					c0,0-5.277-13.458-15.022-19.173c-5.086-2.983-11.755-1.732-14.966,3.213C110.23,222.829,109.03,226.105,108.578,230.77z"/>
				<path style="fill:#37291B;" d="M171.93,172.225c0,0,13.145-13.519,31.145,9.286c0,0-1.246-21.381,13.75-20.21l-0.529,1.364
					c0,0-12.453-1.016-12.12,22.442C204.176,185.108,188.513,162.577,171.93,172.225z"/>
				<path style="fill:#37291B;" d="M126.758,211.766c0,0-2.726-27.031,20.575-36.126c0,0-20.613,9.493-18.341,37.018
					L126.758,211.766z"/>
				<path style="fill:#37291B;" d="M118.547,193.025c0,0-12.118-5.609-10.716-16.139c0.897-6.737,7.152-11.597,13.92-10.965
					c3.27,0.305,7.327,1.509,12.204,4.374c0,0-6.408-13.598-2.262-22.956c2.855-6.445,10.58-8.79,16.872-5.613
					c2.926,1.477,5.857,4.235,7.571,9.313c0,0-2.32-5.223-7.714-7.934c-5.898-2.964-13.192-0.233-15.425,5.978
					c-1.726,4.799-1.769,12.426,3.852,24.272c0,0-8.093-6.33-17.373-5.482c-5.781,0.528-10.435,5.286-10.369,11.09
					C109.151,183.063,111.227,188.117,118.547,193.025z"/>
				<path style="fill:#37291B;" d="M182.377,126.722l7.902-2.419c1.086-0.333,2.264-0.18,3.229,0.419l21.562,13.376l-22.218-12.076
					c-0.696-0.378-1.495-0.525-2.279-0.418L182.377,126.722z"/>
				<path style="fill:#37291B;" d="M226.981,112.945c0,0,4.781-6.585,12.378-4.133c3.631,1.172,6.463,4.121,7.628,7.755
					c1.3,4.057,1.872,10.651-1.781,20.155c0,0,3.17-10.924,0.121-19.514c-1.249-3.518-4.013-6.377-7.607-7.382
					C234.76,108.999,230.837,109.127,226.981,112.945z"/>
				<path style="fill:#37291B;" d="M244.991,107.407c0,0,6.502-13.407,22.735-9.798c0,0-14.327-2.079-21.439,11.229L244.991,107.407
					z"/>
				<path style="fill:#37291B;" d="M297.954,107.227c-0.494-0.006-0.979,0.012-1.448,0.076c-1.656-2.557-4.009-5.382-7.046-7.236
					c-3.684-2.25-8.589-1.406-10.963,2.195c-0.929,1.4-1.686,3.305-2.066,5.887c0,0-0.733-8.026,5.727-10.507
					c2.279-0.871,4.862-0.681,7.039,0.413C291.659,99.288,295.065,101.874,297.954,107.227z"/>
				<path style="fill:#37291B;" d="M310.689,97.378c0,0-6.914,0.468-10.008,10.328c-0.377-0.126-0.78-0.233-1.186-0.307
					C300.495,103.737,303.375,96.559,310.689,97.378z"/>
				<polygon style="fill:#37291B;" points="191.517,153.913 189.965,166.251 191.577,166.947 				"/>
				<polygon style="fill:#37291B;" points="163.343,248.796 182.175,267.818 181.925,269.807 				"/>
				<polygon style="fill:#37291B;" points="170.588,259.044 181.235,270.286 180.606,271.875 				"/>
				<path style="fill:#37291B;" d="M189.463,219.652c0,0,3-12.256,14.045-12.988l-0.766,2.459
					C202.742,209.124,195.361,207.589,189.463,219.652z"/>
				<path style="fill:#37291B;" d="M66.688,315.484l-5.75-10.737c-0.776-1.449-0.213-3.252,1.249-4.003l29.043-14.91l-28.566,16.633
					c-0.39,0.227-0.56,0.702-0.402,1.124L66.688,315.484z"/>
				<path style="fill:#37291B;" d="M219.728,162.519c0,0,4.067-6.546,11.724-2.602l-0.896,1.202
					C230.556,161.12,225.467,156.973,219.728,162.519z"/>
				<path style="fill:#37291B;" d="M215.255,152.532c0,0,1.933-6.921,9.236-10.243c2.621-1.192,5.533-1.612,8.404-1.381
					c2.594,0.209,5.879,0.937,8.417,3.047C241.313,143.954,225.172,135.877,215.255,152.532z"/>
				<polygon style="fill:#37291B;" points="166.623,240.715 190.086,238.612 189.544,240.327 				"/>
				<path style="fill:#37291B;" d="M90.564,233.062c0,0-3.417-4.693-2.888-11.657c0.288-3.792,1.738-7.444,4.199-10.343
					c1.561-1.84,3.759-3.669,6.591-4.241c0,0-16.624,8.602-6.526,26.415L90.564,233.062z"/>
				<path style="fill:#37291B;" d="M159.568,168.172c0,0,0.745-9.1,9.901-8.795c0,0-7.482,0.505-8.697,8.711L159.568,168.172z"/>
				<path style="fill:#37291B;" d="M149.842,195.618c0,0-0.237-5.59,4.528-8.13c1.179-0.629,2.514-0.91,3.85-0.918
					c1.461-0.008,3.485,0.217,5.051,1.301l0.056,0.902C163.328,188.773,153.085,183.438,149.842,195.618z"/>
				<path style="fill:#37291B;" d="M135.399,216.886c0,0,4.022-4.909,10.985-1.242c0,0-6.33-2.595-10.366,2.089L135.399,216.886z"/>
				<path style="fill:#37291B;" d="M83.977,365.328c0,0-3.636-3.579-4.052-9.974c-0.388-5.969,2.479-11.769,7.394-15.178
					c1.585-1.099,3.411-1.951,5.381-2.118c0,0-8.832,2.745-10.95,13.13c-0.766,3.755-0.121,8.347,3.127,13.782L83.977,365.328z"/>
				<path style="fill:#37291B;" d="M194.994,194.88c0,0,0.487-2.117,2.09-3.996c2.405-2.82,6.57-3.487,9.811-1.689
					c0.694,0.385,1.34,0.908,1.84,1.616C208.735,190.811,200.288,185.121,194.994,194.88z"/>
			</g>
		</g>
		<g>
			<g>
				<path style="fill:#FFFFFF;" d="M444.834,258.321c-1.71,12.877-8.259,24.651-18.463,32.695c-0.524,0.417-1.059,0.822-1.58,1.217
					c-5.707,4.272-12.03,7.635-18.698,10.167L155.119,397.52c-17.639,5.772-36.208,8.122-54.725,6.94l-4.493-0.284
					c-5.652-0.363-11.151-1.762-16.52-3.573c-5.206-1.767-9.375-4.359-12.71-7.42L74,379.496c4.947,5.252,11.675,8.852,19.309,9.812
					l13.718,1.725c7.501,0.943,15.138,0.533,22.402-1.554c12.696-3.64,21.509-11.162,27.465-18.673
					c6.201-7.84,10.292-17.136,12.242-26.926l13.299-66.778c4.147-20.819,10.317-41.193,18.734-60.667
					c15.712-36.379,34.736-60.665,53.128-76.883c16.293-14.369,35.839-23.778,56.386-27.825c-3.719-0.367-7.392-0.649-10.996-0.855
					c3.371-0.981,7.526-2.032,12.171-2.863c0.011,0.001,0.011,0.001,0.023-0.008c6.386,0.961,10.159,1.873,10.684,1.996
					c20.041-1.907,40.608,1.208,59.691,9.688C452.383,150.858,448.754,228.854,444.834,258.321z"/>
				<g>
					<path style="fill:#37291B;" d="M383.618,116.631c-10.919-4.857-22.461-8.073-34.331-9.566
						c-8.762-1.102-17.678-1.246-26.51-0.446c-3.822,0.272-7.503,0.776-10.918,1.391c0.013,0.002,0.026,0.004,0.039,0.006
						c-0.063,0.011-0.13,0.021-0.193,0.032c-0.012,0.01-0.012,0.01-0.023,0.008c-4.617,0.827-8.747,1.871-12.098,2.846l-0.011-0.001
						c-5.404,1.577-8.738,2.956-8.738,2.956l0.003,0.008c-14.186,5.271-27.35,13.113-38.752,23.173
						c-21.728,19.159-39.889,45.43-53.995,78.067c-8.277,19.165-14.649,39.806-18.942,61.337l-13.299,66.778
						c-1.894,9.516-5.89,18.33-11.58,25.503c-6.906,8.717-15.571,14.618-25.761,17.539c-6.587,1.891-13.673,2.382-21.063,1.453
						l-13.718-1.725c-7.257-0.913-13.586-4.473-18.064-9.611L74,379.496c4.947,5.252,11.675,8.852,19.309,9.812l13.718,1.725
						c7.501,0.943,15.138,0.533,22.402-1.554c12.696-3.64,21.509-11.162,27.465-18.673c6.201-7.84,10.292-17.136,12.242-26.926
						l13.299-66.778c4.147-20.819,10.317-41.193,18.734-60.667c15.712-36.379,34.736-60.665,53.128-76.883
						c13.934-12.298,30.27-20.948,47.569-25.727c9.4-2.503,17.192-3.503,20.591-3.852c0.03,0.008,0.065,0.016,0.087,0.022
						c8.736-0.834,17.565-0.713,26.327,0.389c11.362,1.429,22.617,4.508,33.387,9.301c70.126,31.173,66.497,109.169,62.577,138.636
						c-1.71,12.877-8.259,24.651-18.463,32.695c-0.524,0.417-1.059,0.822-1.58,1.217c-5.707,4.272-12.03,7.635-18.698,10.167
						L155.119,397.52c-17.639,5.772-36.208,8.122-54.725,6.94l-4.493-0.284c-0.992-0.069-1.969-0.158-2.954-0.282
						c-4.613-0.58-9.136-1.79-13.566-3.291c-5.206-1.767-9.375-4.359-12.71-7.42l-1.618,3.033c3.787,3.308,8.231,5.856,13.255,7.556
						c5.239,1.771,9.885,2.895,14.222,3.441c1.062,0.134,2.117,0.233,3.154,0.296l4.492,0.295
						c19.031,1.214,37.862-1.172,55.983-7.107c0.047-0.017,0.094-0.033,0.141-0.05l250.973-95.119
						c7.163-2.718,13.726-6.286,19.518-10.615c0.547-0.414,1.106-0.839,1.655-1.275c10.855-8.569,17.864-20.96,19.704-34.877
						C452.437,226.552,454.713,148.24,383.618,116.631z"/>
					<path style="fill:#37291B;" d="M322.63,110.016c0,0-0.033-0.004-0.087-0.022c-0.307,0.029-0.625,0.056-0.935,0.107
						C321.95,110.066,322.29,110.041,322.63,110.016z"/>
				</g>
			</g>
			<g>
				<g>
					<path style="fill:#37291B;" d="M189.301,267.936c0,0,18.058-94.128,81.669-137.976
						C270.97,129.96,213.926,174.812,189.301,267.936z"/>
					<path style="fill:#37291B;" d="M217.16,209.356c0,0,14.987-31.487,39.143-57.962
						C256.303,151.394,229.32,172.835,217.16,209.356z"/>
				</g>
				<path style="fill:#37291B;" d="M59.922,375.121c0,0,4.818,33.413,67.559,23.87C127.481,398.991,73.347,406.717,59.922,375.121z"
					/>
				<g>
					<path style="fill:#37291B;" d="M63.754,379.164c0,0,14.929,15.108,41.989,18.089
						C105.743,397.253,79.481,398.545,63.754,379.164z"/>
				</g>
				<g>
					<path style="fill:#37291B;" d="M441.688,213.846c0,0,2.066,22.023-3.274,43.281c-4.632,18.441-17.524,33.929-35.276,40.741
						c-0.581,0.223-1.171,0.438-1.769,0.645l-58.494,22.577l58.567-25.08c0,0,0.64-0.284,1.777-0.859
						c18.33-9.275,31.392-26.475,35.53-46.597C440.587,239.613,441.337,227.866,441.688,213.846z"/>
					<path style="fill:#37291B;" d="M435.224,248.605c0,0-7.623,30.714-42.295,46.525
						C392.93,295.13,428.007,286.085,435.224,248.605z"/>
				</g>
				<path style="fill:#37291B;" d="M356.816,114.879c0,0,29.427,0.926,57.173,29.907
					C413.989,144.786,389.806,122.574,356.816,114.879z"/>
			</g>
			<g>
				
					<path style="fill:none;stroke:#37291B;stroke-width:1.6725;stroke-linecap:round;stroke-linejoin:round;stroke-miterlimit:10;" d="
					M396.297,152.643c0.387,0.551,0.579,1.243,0.488,1.964c-0.193,1.538-1.597,2.628-3.135,2.435
					c-1.538-0.193-2.628-1.597-2.435-3.135c0.194-1.538,1.597-2.628,3.135-2.435"/>
				
					<path style="fill:none;stroke:#37291B;stroke-width:1.6725;stroke-linecap:round;stroke-linejoin:round;stroke-miterlimit:10;" d="
					M424.534,186.488c0.706-0.559,1.669-0.769,2.593-0.477c1.478,0.468,2.296,2.046,1.828,3.524
					c-0.468,1.478-2.046,2.296-3.524,1.828c-1.004-0.318-1.704-1.148-1.902-2.111"/>
				
					<path style="fill:none;stroke:#37291B;stroke-width:1.6725;stroke-linecap:round;stroke-linejoin:round;stroke-miterlimit:10;" d="
					M355.054,122.756c0.26,0.37,0.388,0.834,0.328,1.318c-0.13,1.033-1.072,1.764-2.105,1.634c-1.033-0.13-1.764-1.072-1.634-2.105
					c0.13-1.033,1.072-1.764,2.105-1.634"/>
				
					<path style="fill:none;stroke:#37291B;stroke-width:1.6725;stroke-linecap:round;stroke-linejoin:round;stroke-miterlimit:10;" d="
					M367.477,244.446c0.26,0.37,0.389,0.834,0.328,1.318c-0.13,1.033-1.072,1.764-2.105,1.635c-1.033-0.13-1.764-1.072-1.634-2.105
					c0.13-1.033,1.072-1.764,2.105-1.635"/>
				
					<path style="fill:none;stroke:#37291B;stroke-width:1.6725;stroke-linecap:round;stroke-linejoin:round;stroke-miterlimit:10;" d="
					M248.95,304.395c0.26,0.37,0.389,0.834,0.328,1.318c-0.13,1.033-1.072,1.764-2.105,1.634c-1.033-0.13-1.764-1.072-1.634-2.105
					c0.13-1.033,1.072-1.764,2.105-1.634"/>
				
					<path style="fill:none;stroke:#37291B;stroke-width:1.6725;stroke-linecap:round;stroke-linejoin:round;stroke-miterlimit:10;" d="
					M219.595,236.077c-0.397-0.809-0.397-1.794,0.085-2.635c0.771-1.345,2.487-1.809,3.832-1.038
					c1.345,0.771,1.809,2.487,1.038,3.831c-0.579,1.009-1.688,1.522-2.774,1.39"/>
				
					<path style="fill:none;stroke:#37291B;stroke-width:1.6725;stroke-linecap:round;stroke-linejoin:round;stroke-miterlimit:10;" d="
					M326.632,266.456c0.678,0.594,1.058,1.503,0.937,2.464c-0.194,1.538-1.597,2.628-3.135,2.435
					c-1.538-0.193-2.628-1.597-2.435-3.135c0.145-1.154,0.971-2.055,2.024-2.352"/>
				
					<path style="fill:none;stroke:#37291B;stroke-width:1.6725;stroke-linecap:round;stroke-linejoin:round;stroke-miterlimit:10;" d="
					M300.173,319.159c-0.316-0.844-0.221-1.824,0.341-2.614c0.899-1.263,2.651-1.559,3.914-0.66c1.263,0.899,1.559,2.651,0.66,3.914
					c-0.674,0.947-1.828,1.35-2.896,1.113"/>
				
					<path style="fill:none;stroke:#37291B;stroke-width:1.6725;stroke-linecap:round;stroke-linejoin:round;stroke-miterlimit:10;" d="
					M189.763,347.833c0.387,0.551,0.579,1.243,0.488,1.964c-0.193,1.538-1.597,2.628-3.135,2.435
					c-1.538-0.194-2.628-1.597-2.435-3.135c0.193-1.538,1.597-2.628,3.135-2.435"/>
				
					<path style="fill:none;stroke:#37291B;stroke-width:1.6725;stroke-linecap:round;stroke-linejoin:round;stroke-miterlimit:10;" d="
					M287.189,165.117c0.678,0.594,1.058,1.503,0.938,2.464c-0.194,1.538-1.597,2.628-3.135,2.435
					c-1.538-0.193-2.628-1.597-2.435-3.135c0.152-1.207,1.048-2.137,2.17-2.389"/>
				
					<path style="fill:none;stroke:#37291B;stroke-width:1.6725;stroke-linecap:round;stroke-linejoin:round;stroke-miterlimit:10;" d="
					M294.507,228.391c-0.853,0.291-1.83,0.167-2.603-0.417c-1.236-0.935-1.48-2.696-0.545-3.932c0.935-1.236,2.696-1.48,3.932-0.545
					c0.773,0.585,1.158,1.491,1.11,2.391"/>
				<g>
					
						<line style="fill:none;stroke:#37291B;stroke-width:1.6725;stroke-linecap:round;stroke-linejoin:round;stroke-miterlimit:10;" x1="418.301" y1="252.116" x2="418.726" y2="255.159"/>
					
						<line style="fill:none;stroke:#37291B;stroke-width:1.6725;stroke-linecap:round;stroke-linejoin:round;stroke-miterlimit:10;" x1="421.455" y1="252.481" x2="420.561" y2="255.421"/>
				</g>
				<g>
					
						<line style="fill:none;stroke:#37291B;stroke-width:1.6725;stroke-linecap:round;stroke-linejoin:round;stroke-miterlimit:10;" x1="333.485" y1="152.634" x2="333.909" y2="155.678"/>
					
						<line style="fill:none;stroke:#37291B;stroke-width:1.6725;stroke-linecap:round;stroke-linejoin:round;stroke-miterlimit:10;" x1="336.638" y1="153" x2="335.745" y2="155.94"/>
				</g>
				<g>
					
						<line style="fill:none;stroke:#37291B;stroke-width:1.6725;stroke-linecap:round;stroke-linejoin:round;stroke-miterlimit:10;" x1="390.457" y1="211.751" x2="390.881" y2="214.795"/>
					
						<line style="fill:none;stroke:#37291B;stroke-width:1.6725;stroke-linecap:round;stroke-linejoin:round;stroke-miterlimit:10;" x1="393.611" y1="212.117" x2="392.717" y2="215.057"/>
				</g>
				<g>
					
						<line style="fill:none;stroke:#37291B;stroke-width:1.6725;stroke-linecap:round;stroke-linejoin:round;stroke-miterlimit:10;" x1="299.232" y1="128.333" x2="299.656" y2="131.376"/>
					
						<line style="fill:none;stroke:#37291B;stroke-width:1.6725;stroke-linecap:round;stroke-linejoin:round;stroke-miterlimit:10;" x1="302.385" y1="128.698" x2="301.492" y2="131.639"/>
				</g>
				<g>
					
						<line style="fill:none;stroke:#37291B;stroke-width:1.6725;stroke-linecap:round;stroke-linejoin:round;stroke-miterlimit:10;" x1="339.792" y1="199.404" x2="340.216" y2="202.447"/>
					
						<line style="fill:none;stroke:#37291B;stroke-width:1.6725;stroke-linecap:round;stroke-linejoin:round;stroke-miterlimit:10;" x1="342.946" y1="199.77" x2="342.052" y2="202.71"/>
				</g>
				<g>
					
						<line style="fill:none;stroke:#37291B;stroke-width:1.6725;stroke-linecap:round;stroke-linejoin:round;stroke-miterlimit:10;" x1="250.315" y1="188.15" x2="250.739" y2="191.193"/>
					
						<line style="fill:none;stroke:#37291B;stroke-width:1.6725;stroke-linecap:round;stroke-linejoin:round;stroke-miterlimit:10;" x1="253.468" y1="188.515" x2="252.575" y2="191.456"/>
				</g>
				<g>
					
						<line style="fill:none;stroke:#37291B;stroke-width:1.6725;stroke-linecap:round;stroke-linejoin:round;stroke-miterlimit:10;" x1="357.765" y1="289.212" x2="358.19" y2="292.256"/>
					
						<line style="fill:none;stroke:#37291B;stroke-width:1.6725;stroke-linecap:round;stroke-linejoin:round;stroke-miterlimit:10;" x1="360.919" y1="289.578" x2="360.025" y2="292.518"/>
				</g>
				<g>
					
						<line style="fill:none;stroke:#37291B;stroke-width:1.6725;stroke-linecap:round;stroke-linejoin:round;stroke-miterlimit:10;" x1="263.369" y1="260.987" x2="263.793" y2="264.03"/>
					
						<line style="fill:none;stroke:#37291B;stroke-width:1.6725;stroke-linecap:round;stroke-linejoin:round;stroke-miterlimit:10;" x1="266.522" y1="261.353" x2="265.629" y2="264.293"/>
				</g>
				<g>
					
						<line style="fill:none;stroke:#37291B;stroke-width:1.6725;stroke-linecap:round;stroke-linejoin:round;stroke-miterlimit:10;" x1="198.515" y1="285.223" x2="198.94" y2="288.267"/>
					
						<line style="fill:none;stroke:#37291B;stroke-width:1.6725;stroke-linecap:round;stroke-linejoin:round;stroke-miterlimit:10;" x1="201.669" y1="285.589" x2="200.775" y2="288.529"/>
				</g>
				<g>
					
						<line style="fill:none;stroke:#37291B;stroke-width:1.6725;stroke-linecap:round;stroke-linejoin:round;stroke-miterlimit:10;" x1="234.795" y1="348.604" x2="235.219" y2="351.648"/>
					
						<line style="fill:none;stroke:#37291B;stroke-width:1.6725;stroke-linecap:round;stroke-linejoin:round;stroke-miterlimit:10;" x1="237.949" y1="348.97" x2="237.055" y2="351.91"/>
				</g>
			</g>
		</g>
	</g>
</g>
</svg>
